<svg width="31" height="31" viewBox="0 0 31 31" fill="none" xmlns="http://www.w3.org/2000/svg">
<path id="Vector" fill-rule="evenodd" clip-rule="evenodd" d="M15.25 30.5C23.5342 30.5 30.25 23.7842 30.25 15.5C30.25 7.2158 23.5342 0.5 15.25 0.5C6.9658 0.5 0.25 7.2158 0.25 15.5C0.25 23.7842 6.9658 30.5 15.25 30.5ZM21.8431 10.0832C21.9589 8.7692 20.5711 9.3104 20.5711 9.3104C19.5466 9.7346 18.49 10.1654 17.422 10.601C14.11 11.9519 10.6888 13.3475 7.7743 14.7212C6.1939 15.3008 7.1191 15.8804 7.1191 15.8804L9.6244 16.6535C10.7809 17.0015 11.3974 16.6148 11.3974 16.6148L16.7938 12.9434C18.721 11.6294 18.2584 12.7115 17.7958 13.1753L13.7488 17.0399C13.132 17.5811 13.4404 18.0449 13.7101 18.2768C14.4751 18.9515 16.3561 20.186 17.1772 20.7248C17.3908 20.8649 17.5327 20.9582 17.5648 20.9822C17.7574 21.1367 18.7981 21.8324 19.492 21.6779C20.1859 21.5231 20.263 20.6342 20.263 20.6342L21.1879 14.5664C21.3265 13.5131 21.4858 12.5006 21.613 11.6918C21.733 10.928 21.8245 10.3463 21.8431 10.0832Z" fill="#5E4D42"/>
</svg>
