<svg width="31" height="31" viewBox="0 0 31 31" fill="none" xmlns="http://www.w3.org/2000/svg">
<path id="Vector" fill-rule="evenodd" clip-rule="evenodd" d="M15.25 30.5C23.5342 30.5 30.25 23.7842 30.25 15.5C30.25 7.2158 23.5342 0.5 15.25 0.5C6.9658 0.5 0.25 7.2158 0.25 15.5C0.25 23.7842 6.9658 30.5 15.25 30.5ZM7.75 10.7C7.8718 16.5464 10.795 20.06 15.9199 20.06H16.2103V16.715C18.0937 16.9025 19.5175 18.2798 20.0893 20.06H22.75C22.0192 17.399 20.0986 15.9281 18.8992 15.3659C20.0986 14.6726 21.7849 12.986 22.1878 10.7H19.7704C19.2457 12.5552 17.6908 14.2415 16.2103 14.4008V10.7H13.7932V17.1833C12.2941 16.8086 10.4014 14.9912 10.3168 10.7H7.75Z" fill="#5E4D42"/>
</svg>
